<?xml version="1.0" encoding="utf-8"?>
<svg version="1.1" x="0px" y="0px" viewBox="138.146 133.479 252.644 247.043" style="enable-background:new 0 0 500 500;" xmlns="http://www.w3.org/2000/svg">
  <defs/>
  <g id="OBJECTS" transform="matrix(1, 0, 0, 1, 14.934767, 54.138299)">
    <g id="g171881" transform="translate(-4.5048224)">
      <linearGradient id="path45520_00000018202778408992936470000017335396574688901767_" gradientUnits="userSpaceOnUse" x1="27.1484" y1="566.8725" x2="37.3802" y2="565.6927" gradientTransform="matrix(3.3495 0 0 -3.3495 223.9966 2007.8158)">
        <stop offset="0" style="stop-color:#0964E7"/>
        <stop offset="1" style="stop-color:#48D4FA"/>
      </linearGradient>
      <path id="path45520" style="fill:url(#path45520_00000018202778408992936470000017335396574688901767_);stroke:#539873;stroke-width:0.0823;" d="&#10;&#9;&#9;&#9;M348.661,111.41c-2.82-9.821-10.234-16.517-16.206-19.51c-4.761-2.2-9.065-3.76-15.247-3.607&#10;&#9;&#9;&#9;c-2.054,0.126-3.224,0.974-4.043,2.257c-0.959,1.73-0.817,2.736-0.371,4.4c1.398,4.951,2.483,9.931,0.388,17.265&#10;&#9;&#9;&#9;c-1.931,6.738-5.394,10.759-9.328,14.224c-1.919,1.595-4.061,2.088-5.632,2.067l44.254-0.001l4.469-2.425l1.776-5.425l0.895-5.167&#10;&#9;&#9;&#9;C349.307,113.976,348.995,112.585,348.661,111.41z"/>
      <path id="path75428" style="opacity:0.1774;fill:#89E2FF;enable-background:new    ;" d="M317.783,88.283&#10;&#9;&#9;&#9;c-0.189,0.002-0.382,0.004-0.575,0.009c-2.054,0.126-3.225,0.974-4.044,2.257c-0.959,1.73-0.816,2.735-0.371,4.399&#10;&#9;&#9;&#9;c1.398,4.951,2.484,9.931,0.389,17.264c-1.931,6.738-5.394,10.76-9.329,14.225c-1.918,1.594-4.061,2.087-5.631,2.066h17.944&#10;&#9;&#9;&#9;c4.027-3.174,8.198-8.289,11.239-16.534c3.912-10.61-0.795-18.438-7.512-23.633C319.213,88.296,318.511,88.278,317.783,88.283&#10;&#9;&#9;&#9;L317.783,88.283z"/>
      <path id="path74359" style="opacity:0.5325;fill:#0D2B5E;enable-background:new    ;" d="M348.415,110.607&#10;&#9;&#9;&#9;c-2.143,3.152-5.812,6.917-12.1,10.725c-7.712,4.67-17.171,6.509-24.83,7.172h30.99l4.468-2.424l1.777-5.426l0.895-5.167&#10;&#9;&#9;&#9;c-0.307-1.512-0.62-2.903-0.955-4.078C348.583,111.14,348.5,110.873,348.415,110.607z"/>
      <linearGradient id="path45516_00000164486055063217078140000015222698203779774620_" gradientUnits="userSpaceOnUse" x1="-20.5415" y1="511.2399" x2="-9.1902" y2="511.5253" gradientTransform="matrix(3.3495 0 0 -3.3495 223.9966 2007.8158)">
        <stop offset="0" style="stop-color:#0964E7"/>
        <stop offset="1" style="stop-color:#48D4FA"/>
      </linearGradient>
      <path id="path45516" style="fill:url(#path45516_00000164486055063217078140000015222698203779774620_);stroke:#539873;stroke-width:0.0823;" d="&#10;&#9;&#9;&#9;M156.256,291.906c2.82,9.822,10.233,16.516,16.205,19.51c4.762,2.2,9.066,3.76,15.248,3.607c2.053-0.124,3.223-0.974,4.043-2.257&#10;&#9;&#9;&#9;c0.959-1.729,0.817-2.736,0.371-4.399c-1.399-4.951-2.485-9.932-0.388-17.264c1.93-6.739,5.394-10.76,9.328-14.226&#10;&#9;&#9;&#9;c1.919-1.593,4.061-2.086,5.631-2.065H162.44l-4.469,2.424l-1.776,5.427l-0.896,5.167&#10;&#9;&#9;&#9;C155.607,289.341,155.921,290.731,156.256,291.906z"/>
      <path id="path74498" style="opacity:0.1774;fill:#89E2FF;enable-background:new    ;" d="M184.255,274.813&#10;&#9;&#9;&#9;c-16.123,7.653-10.398,30.775,7.524,37.901c0.928-1.696,0.784-2.699,0.343-4.347c-1.399-4.951-2.485-9.931-0.389-17.264&#10;&#9;&#9;&#9;c1.931-6.738,5.395-10.761,9.329-14.226c1.919-1.593,4.061-2.086,5.631-2.065H184.255z"/>
      <path id="path74396" style="opacity:0.5325;fill:#0D2B5E;enable-background:new    ;" d="M162.44,274.813l-4.469,2.424&#10;&#9;&#9;&#9;l-1.776,5.427l-0.896,5.167c0.191,0.938,0.386,1.819,0.585,2.642c2.213-3.977,8.193-10.784,22.985-9.795&#10;&#9;&#9;&#9;c7.063,0.473,12.286,1.692,16.107,3.091c1.743-2.747,3.837-4.911,6.085-6.891c1.919-1.593,4.061-2.086,5.631-2.065H162.44z"/>
      <linearGradient id="path45522_00000000193423699236084120000004139246663816929705_" gradientUnits="userSpaceOnUse" x1="-10.84" y1="546.7156" x2="37.6413" y2="546.7156" gradientTransform="matrix(3.3495 0 0 -3.3495 223.9966 2007.8158)">
        <stop offset="0" style="stop-color:#7E1FF7"/>
        <stop offset="1" style="stop-color:#E63BF7"/>
      </linearGradient>
      <path id="path45522" style="fill:url(#path45522_00000000193423699236084120000004139246663816929705_);" d="M348.548,110.929&#10;&#9;&#9;&#9;c1.068,4.681,0.254,8.512-2.584,12.248c-3.459,4.272-8.129,5.746-13.615,5.328l0,0H205.335c-9.776,0-17.647,7.87-17.647,17.646&#10;&#9;&#9;&#9;v78.457c0,9.776,7.871,17.647,17.647,17.647h91.927v-17.54H215.54c-5.713,0-10.312-4.6-10.312-10.313v-58.044&#10;&#9;&#9;&#9;c0-5.713,4.599-10.313,10.312-10.313h58.076h48.525h4.876c6.175,0.286,12.363-0.881,16.407-5.687&#10;&#9;&#9;&#9;c3.55-4.219,4.342-6.441,5.688-11.853c0.657-2.797,0.94-4.77,0.95-7.79C350.206,116.152,349.203,113.854,348.548,110.929&#10;&#9;&#9;&#9;L348.548,110.929z M341.225,152.399c-4.844,0-8.77,3.926-8.77,8.77v53.233c0,5.713-4.601,10.313-10.314,10.313h-2.475v17.54&#10;&#9;&#9;&#9;h12.682c9.775,0,17.646-7.871,17.646-17.647v-63.439C349.995,156.325,346.069,152.399,341.225,152.399L341.225,152.399z"/>
      <linearGradient id="path45518_00000014622820600218605710000018241129675753300631_" gradientUnits="userSpaceOnUse" x1="-20.6469" y1="531.7485" x2="27.8345" y2="531.7485" gradientTransform="matrix(3.3495 0 0 -3.3495 223.9966 2007.8158)">
        <stop offset="0" style="stop-color:#FF981B"/>
        <stop offset="1" style="stop-color:#FC236C"/>
      </linearGradient>
      <path id="path45518" style="fill:url(#path45518_00000014622820600218605710000018241129675753300631_);" d="M172.568,161.062&#10;&#9;&#9;&#9;c-9.776,0-17.648,7.871-17.648,17.648v63.439c0,4.843,3.927,8.77,8.771,8.77c4.842,0,8.769-3.928,8.769-8.77v-53.234&#10;&#9;&#9;&#9;c0-5.712,4.601-10.313,10.314-10.313h2.481v-17.54H172.568z M207.661,161.062v17.54h81.714c5.714,0,10.311,4.6,10.311,10.313&#10;&#9;&#9;&#9;v58.044c0,5.713-4.598,10.313-10.311,10.313H231.3h-48.526h-4.877c-6.174-0.286-12.362,0.88-16.406,5.687&#10;&#9;&#9;&#9;c-3.549,4.219-4.342,6.439-5.688,11.853c-0.657,2.796-0.94,4.77-0.95,7.789c-0.145,4.563,0.859,6.86,1.514,9.785&#10;&#9;&#9;&#9;c-1.069-4.679-0.253-8.511,2.584-12.246c3.46-4.273,8.129-5.747,13.615-5.328h0.001h127.013c9.776,0,17.647-7.87,17.647-17.647&#10;&#9;&#9;&#9;V178.71c0-9.777-7.871-17.648-17.647-17.648H207.661z"/>
      <path id="rect53650" style="opacity:0.401;fill:#FEAE53;enable-background:new    ;" d="M169.929,178.602&#10;&#9;&#9;&#9;c-8.315,0-15.009,6.694-15.009,15.008v48.538c0,4.843,3.927,8.77,8.771,8.77c4.842,0,8.769-3.928,8.769-8.77v-53.234&#10;&#9;&#9;&#9;c0-5.712,4.601-10.313,10.314-10.313H169.929z"/>
      <linearGradient id="circle45578_00000022531877491376485820000011662535885053709991_" gradientUnits="userSpaceOnUse" x1="-3.9896" y1="538.8862" x2="1.9393" y2="538.8862" gradientTransform="matrix(3.3495 0 0 -3.3495 223.9966 2007.8158)">
        <stop offset="0" style="stop-color:#0964E7"/>
        <stop offset="1" style="stop-color:#48D4FA"/>
      </linearGradient>
      <path id="circle45578" style="fill:url(#circle45578_00000022531877491376485820000011662535885053709991_);stroke:#93A8B1;stroke-width:0.0823;stroke-opacity:0.8667;" d="&#10;&#9;&#9;&#9;M220.564,193.004c5.419,0,9.812,4.394,9.812,9.813c0,5.419-4.393,9.813-9.812,9.813c-5.419,0-9.813-4.394-9.813-9.813&#10;&#9;&#9;&#9;C210.751,197.398,215.145,193.004,220.564,193.004z"/>
      <linearGradient id="circle45580_00000032643513082343116090000013675753049338053521_" gradientUnits="userSpaceOnUse" x1="5.3598" y1="538.8862" x2="11.289" y2="538.8862" gradientTransform="matrix(3.3495 0 0 -3.3495 223.9966 2007.8158)">
        <stop offset="0" style="stop-color:#0964E7"/>
        <stop offset="1" style="stop-color:#48D4FA"/>
      </linearGradient>
      <path id="circle45580" style="fill:url(#circle45580_00000032643513082343116090000013675753049338053521_);stroke:#93A8B1;stroke-width:0.0823;stroke-opacity:0.8667;" d="&#10;&#9;&#9;&#9;M251.88,193.004c5.42,0,9.813,4.394,9.813,9.813c0,5.419-4.394,9.813-9.813,9.813c-5.419,0-9.813-4.394-9.813-9.813&#10;&#9;&#9;&#9;C242.067,197.398,246.461,193.004,251.88,193.004z"/>
      <linearGradient id="path45576_00000016063279949286233460000010014253563340659330_" gradientUnits="userSpaceOnUse" x1="14.7094" y1="538.8862" x2="20.6383" y2="538.8862" gradientTransform="matrix(3.3495 0 0 -3.3495 223.9966 2007.8158)">
        <stop offset="0" style="stop-color:#0964E7"/>
        <stop offset="1" style="stop-color:#48D4FA"/>
      </linearGradient>
      <path id="path45576" style="fill:url(#path45576_00000016063279949286233460000010014253563340659330_);stroke:#93A8B1;stroke-width:0.0823;stroke-opacity:0.8667;" d="&#10;&#9;&#9;&#9;M283.196,193.004c5.42,0,9.813,4.394,9.813,9.813c0,5.419-4.393,9.813-9.813,9.813c-5.419,0-9.813-4.394-9.813-9.813&#10;&#9;&#9;&#9;C273.384,197.398,277.777,193.004,283.196,193.004z"/>
      <path id="path48505" style="opacity:0.6876;fill:#641991;enable-background:new    ;" d="M208.058,146.045&#10;&#9;&#9;&#9;c-11.285,0-20.37,9.084-20.37,20.37v37.929c0,11.286,9.085,20.371,20.37,20.371h7.482c-5.713,0-10.312-4.6-10.312-10.313v-58.044&#10;&#9;&#9;&#9;c0-5.713,4.599-10.313,10.312-10.313L208.058,146.045z"/>
      <path id="rect47189" style="opacity:0.428;fill:#B51238;enable-background:new    ;" d="M296.857,257.273&#10;&#9;&#9;&#9;c11.286,0,20.371-9.085,20.371-20.371v-37.93c0-11.285-9.085-20.37-20.371-20.37h-7.482c5.714,0,10.311,4.6,10.311,10.313v58.044&#10;&#9;&#9;&#9;c0,5.713-4.598,10.314-10.311,10.314H296.857z"/>
    </g>
  </g>
</svg>